<?xml version="1.0" encoding="UTF-8" standalone="no"?>
<svg
   xmlns:dc="http://purl.org/dc/elements/1.1/"
   xmlns:cc="http://creativecommons.org/ns#"
   xmlns:rdf="http://www.w3.org/1999/02/22-rdf-syntax-ns#"
   xmlns:svg="http://www.w3.org/2000/svg"
   xmlns="http://www.w3.org/2000/svg"
   xmlns:sodipodi="http://sodipodi.sourceforge.net/DTD/sodipodi-0.dtd"
   xmlns:inkscape="http://www.inkscape.org/namespaces/inkscape"
   version="1.1"
   id="svg60"
   width="512"
   height="512"
   viewBox="0 0 512 512"
   sodipodi:docname="oxigeno.png.svg"
   inkscape:export-filename="/home/ivan/Escritorio/BETAS/INTERFAZ ALARMAS/INTERFAZ 2.5/Pantalla touch/beta 2.1 monitor signos v/imagenes/mas.png"
   inkscape:export-xdpi="96"
   inkscape:export-ydpi="96"
   inkscape:version="1.0.1 (3bc2e813f5, 2020-09-07)">
  <metadata
     id="metadata66">
    <rdf:RDF>
      <cc:Work
         rdf:about="">
        <dc:format>image/svg+xml</dc:format>
        <dc:type
           rdf:resource="http://purl.org/dc/dcmitype/StillImage" />
        <dc:title></dc:title>
      </cc:Work>
    </rdf:RDF>
  </metadata>
  <defs
     id="defs64" />
  <sodipodi:namedview
     pagecolor="#ffffff"
     bordercolor="#666666"
     borderopacity="1"
     objecttolerance="10"
     gridtolerance="10"
     guidetolerance="10"
     inkscape:pageopacity="0"
     inkscape:pageshadow="2"
     inkscape:window-width="1366"
     inkscape:window-height="731"
     id="namedview62"
     showgrid="false"
     inkscape:zoom="5.7955904"
     inkscape:cx="72.317456"
     inkscape:cy="40.385489"
     inkscape:window-x="0"
     inkscape:window-y="0"
     inkscape:window-maximized="1"
     inkscape:current-layer="g296" />
  <g
     inkscape:groupmode="layer"
     inkscape:label="Image"
     id="g68">
    <path
       style="fill:#000000;stroke-width:0.0410156"
       id="path74"
       d="" />
    <path
       style="fill:#000000;stroke-width:0.0410156"
       id="path72"
       d="" />
    <g
       id="g296"
       transform="translate(-166.37422,31.799647)">
      <path
         style="fill:#000000;stroke-width:0.238997"
         d="m 204.02017,93.595741 c -9.34517,-1.15701 -16.66941,-5.40761 -19.59367,-11.37112 -0.48735,-0.99387 -0.96832,-2.34212 -1.06881,-2.99611 -0.1688,-1.09855 -0.24888,-1.20476 -1.05185,-1.39517 -1.15199,-0.27316 -1.63894,-0.74607 -1.65014,-1.60254 -0.01,-0.7611 0.92352,-1.56198 1.82059,-1.56198 0.40402,0 0.48844,-0.20526 0.48844,-1.18755 0,-1.10535 -0.0535,-1.2014 -0.77328,-1.38754 -1.06477,-0.27536 -1.52489,-0.7485 -1.53575,-1.57919 -0.01,-0.7611 0.92352,-1.56198 1.82059,-1.56198 0.45454,0 0.48844,-1.26374 0.48844,-18.20898 v -18.20898 l -0.88042,-0.24806 c -1.0558,-0.29747 -1.43783,-0.72924 -1.43783,-1.62501 0,-0.72412 0.96134,-1.52566 1.82981,-1.52566 0.39753,0 0.48844,-0.19734 0.48844,-1.06021 0,-0.99513 -0.054,-1.07543 -0.88042,-1.30826 -1.0558,-0.29748 -1.43783,-0.72925 -1.43783,-1.62502 0,-0.76903 0.97659,-1.52566 1.96918,-1.52566 0.45248,0 0.67299,-0.15139 0.78959,-0.54206 0.78601,-2.63354 1.88583,-4.54751 3.7661,-6.55399 2.25138,-2.40249 5.61098,-4.51689 9.05088,-5.69625 l 1.23157,-0.42224 v -3.6082101 -3.60822 l 0.747,-0.47786 c 0.67819,-0.43384 1.03416,-0.48393 3.86435,-0.54372 l 3.11735,-0.0659 0.30709,-1.34950002 c 0.55215,-2.42645998 2.48604,-4.23625998 5.52026,-5.16605998 1.84498,-0.56537 4.52722,-0.54302 12.9564,0.10796 l 6.66243,0.51453 1.01678,-0.6634 c 2.63097,-1.71659 5.895,-2.56668 9.8551,-2.56668 3.98108,0 6.97893,0.76462 9.70896,2.47634 l 1.19697,0.7505 6.64541,-0.51059 c 8.45006,-0.64925 11.10258,-0.67152 12.93936,-0.10866 3.02652,0.92744 4.98203,2.75498 5.54358,5.18079998 l 0.30909,1.33522002 3.10469,0.0656 c 2.81698,0.0596 3.17392,0.10991 3.8517,0.54349 l 0.747,0.47786 v 3.60822 3.6082101 l 1.23157,0.42558 c 6.0438,2.08851 10.68094,6.22856 12.45671,11.12139 0.52669,1.45121 0.68654,1.66757 1.23205,1.66757 0.34476,0 0.91037,0.20529 1.25691,0.45621 1.20236,0.87056 0.58923,2.4296 -1.09881,2.79403 -0.49735,0.10737 -0.58936,0.29441 -0.58936,1.19807 0,0.90535 0.0818,1.07084 0.52905,1.07084 0.29097,0 0.81258,0.20529 1.15912,0.4562 1.23075,0.89113 0.54534,2.50669 -1.18908,2.80275 l -0.64398,0.10992 0.0754,18.22391 c 0.0722,17.45599 0.0976,18.22391 0.6015,18.22391 0.82894,0 1.78622,0.83245 1.78622,1.55329 0,0.87886 -0.40972,1.32456 -1.44279,1.56952 -0.84404,0.20014 -0.87546,0.25041 -0.87546,1.40052 0,1.02356 0.0751,1.19293 0.52905,1.19293 0.85979,0 1.79031,0.83099 1.77998,1.5896 -0.0113,0.82991 -0.50817,1.30414 -1.65014,1.57492 -0.80508,0.19091 -0.88282,0.29514 -1.05476,1.4141 -0.23904,1.55563 -1.8486,4.74975 -3.11065,6.17298 -3.30971,3.73241 -8.43171,6.43176 -14.60482,7.69691 -2.23455,0.45796 -3.1475,0.53636 -6.37518,0.54741 -4.14853,0.0142 -6.09596,-0.20927 -9.45975,-1.08556 -8.23318,-2.14479 -14.32702,-7.4659 -15.4824,-13.51916 -0.15547,-0.81455 -0.32498,-1.05582 -0.81222,-1.15605 -1.09743,-0.22575 -1.91975,-0.89717 -1.91975,-1.56747 0,-0.75335 0.92118,-1.61717 1.81691,-1.70376 0.56932,-0.055 0.65649,-0.19544 0.73242,-1.17962 0.0786,-1.01857 0.0274,-1.12927 -0.57956,-1.25461 -2.45937,-0.5078 -2.68175,-2.50477 -0.35265,-3.16672 l 0.99091,-0.28163 v -18.11241 -18.11241 l -0.9089,-0.21552 c -1.13014,-0.26798 -1.67796,-0.74197 -1.68992,-1.46218 -0.0134,-0.80788 0.48429,-1.3132 1.60791,-1.63255 0.93644,-0.26615 0.99091,-0.3346 0.99091,-1.24526 0,-0.90281 -0.0574,-0.97724 -0.9089,-1.17916 -1.17016,-0.27747 -1.67841,-0.74566 -1.68992,-1.55673 -0.0106,-0.74709 1.06579,-1.61722 2.00056,-1.61722 0.40095,0 0.64802,-0.17195 0.7789,-0.54206 0.24292,-0.68697 1.25132,-3.19967 1.45156,-3.61697 0.12687,-0.26438 -0.20557,-0.33371 -2.05712,-0.42896 -2.73217,-0.14055 -5.2969,-0.90617 -7.20796,-2.15172 l -1.33969,-0.87316 -1.0491,0.7308 c -1.95723,1.36341 -5.41944,2.34124 -8.307,2.34615 -0.75705,0.001 -1.37646,0.0626 -1.37646,0.13618 0,0.0736 0.26128,0.7167 0.58061,1.42907 0.31934,0.71237 0.71558,1.67219 0.88052,2.13294 0.22894,0.63952 0.4375,0.83773 0.88146,0.83773 0.92984,0 2.00549,0.872 1.99491,1.61722 -0.0115,0.81107 -0.51975,1.27926 -1.68991,1.55673 -0.85153,0.20192 -0.9089,0.27635 -0.9089,1.17916 0,0.91066 0.0545,0.97911 0.99091,1.24526 1.12362,0.31935 1.62132,0.82467 1.6079,1.63255 -0.0119,0.71486 -0.55847,1.19389 -1.66045,1.45519 l -0.87944,0.20854 8.7e-4,18.12799 8.7e-4,18.12799 0.96067,0.27303 c 2.29326,0.65177 2.05898,2.6543 -0.36914,3.15516 -0.57162,0.11792 -0.65201,0.26619 -0.65201,1.20269 0,1.02968 0.0357,1.07834 0.99091,1.34982 1.08712,0.30897 1.61713,0.81916 1.61713,1.55669 0,0.61679 -0.95417,1.44015 -1.84524,1.59228 -0.5951,0.10159 -0.72431,0.27674 -0.89674,1.2155 -1.22353,6.66116 -8.69291,12.4257 -18.26717,14.09782 -2.60884,0.45562 -7.89807,0.65753 -10.09606,0.3854 z m 8.64715,-3.66512 c 7.42426,-1.20956 13.61691,-5.85892 14.74874,-11.07316 l 0.18185,-0.83773 h -19.73403 -19.73403 l 0.20319,0.83773 c 1.43013,5.89618 8.20653,10.47891 16.81032,11.36844 2.06806,0.21382 5.13882,0.0933 7.52396,-0.29528 z m 67.08437,0.076 c 0.71721,-0.11151 2.54284,-0.6041 4.05694,-1.09464 2.33308,-0.75586 3.1336,-1.15093 5.249,-2.59044 2.01816,-1.37333 2.72352,-2.01935 3.68393,-3.37401 0.97098,-1.36958 2.07876,-3.89745 2.07876,-4.74358 0,-0.11242 -7.68788,-0.18423 -19.72466,-0.18423 -18.64677,0 -19.71682,0.0188 -19.5814,0.34495 0.0788,0.18972 0.23115,0.7441 0.33859,1.23195 0.51831,2.35357 3.03898,5.35583 6.09698,7.26185 4.70199,2.9307 11.48522,4.13027 17.80186,3.14815 z m -52.16063,-16.52048 v -1.18268 h -19.70514 -19.70513 v 1.08274 1.08274 l 19.63269,0.0521 c 10.79798,0.0286 19.66528,0.0736 19.70513,0.0999 0.0398,0.0263 0.0725,-0.48433 0.0725,-1.1348 z m 67.22926,-0.0986 v -1.08412 h -19.70513 -19.70513 v 1.08412 1.08412 h 19.70513 19.70513 z m -67.22926,-22.66787 v -18.23289 h -19.70514 -19.70513 v 18.13296 18.13296 l 19.63269,0.0521 c 10.79798,0.0286 19.66528,0.0736 19.70513,0.0999 0.0398,0.0263 0.0725,-8.15693 0.0725,-18.18502 z m 67.22926,0 v -18.23289 h -19.70513 -19.70513 v 18.13296 18.13296 l 19.63269,0.0521 c 10.79797,0.0286 19.66528,0.0736 19.70513,0.0999 0.0398,0.0263 0.0724,-8.15693 0.0724,-18.18502 z m -67.22926,-22.65315 v -1.09889 h -19.70514 -19.70513 v 1.04955 1.04955 l 19.70513,0.0493 19.70514,0.0493 z m 67.22926,-0.001 v -1.09751 h -19.70513 -19.70513 v 1.0522 1.05219 l 19.70513,0.0453 19.70513,0.0453 z m -67.51905,-4.72104 c 0,-0.77792 -1.51647,-3.41461 -2.71819,-4.72612 -1.52762,-1.66717 -4.51457,-3.65596 -6.99849,-4.65977 l -1.70713,-0.68989 h -7.98783 -7.98783 l -2.05115,0.843 c -2.9894,1.22861 -5.98777,3.37776 -7.48639,5.36604 -0.66178,0.87801 -1.89368,3.36811 -1.89368,3.82779 0,0.18337 4.47261,0.25027 19.41534,0.29045 17.32628,0.0466 19.41535,0.0195 19.41535,-0.2515 z m 67.081,-0.54949 c -0.82985,-3.42141 -5.05446,-7.22675 -10.02264,-9.02796 l -1.64636,-0.59689 h -7.45137 -7.45138 l -2.07085,0.72994 c -2.95632,1.04204 -6.35462,3.39362 -7.94756,5.49961 -0.97992,1.29554 -2.09227,3.43544 -2.09227,4.02505 0,0.0655 8.75012,0.14256 19.4447,0.17132 l 19.4447,0.0523 z m -60.38682,-7.29158 c 1.53991,-0.35831 2.90915,-1.06692 3.79476,-1.96387 0.44689,-0.45262 0.81254,-0.89125 0.81254,-0.97473 0,-0.0835 -0.40911,-0.21291 -0.90913,-0.28761 -1.31213,-0.19604 -3.51833,-0.92359 -4.79589,-1.58157 -4.66248,-2.4013401 -6.91107,-6.6178301 -5.47955,-10.27511012 l 0.39981,-1.02144 -1.9246,-0.12964 c -1.05853,-0.0713 -4.08848,-0.29685998 -6.73322,-0.50123998 -5.05286,-0.39048 -6.16941,-0.33666 -7.2869,0.35124998 -0.81569,0.50213 -1.32083,1.24491 -1.47752,2.17263002 l -0.13626,0.80677 3.33055,0.0658 c 3.23716,0.0639 3.35015,0.0813 4.02928,0.61883 0.68222,0.53998 0.69873,0.63652 0.69873,4.08607 v 3.5330301 l 1.23157,0.42558 c 2.22438,0.76866 4.82763,2.15839 6.6366,3.54289 l 1.779,1.36158 h 2.5226 c 1.38743,0 2.96586,-0.10314 3.50763,-0.2292 z m 22.68445,-1.03399 c 1.71385,-1.32784 4.69565,-2.93267 6.77159,-3.64454 l 1.23158,-0.42232 V 6.8695309 c 0,-3.44955 0.0165,-3.54609 0.69872,-4.08607 0.67928,-0.53765 0.79165,-0.55489 4.03492,-0.61892 l 3.33619,-0.0659 -0.11228,-0.76771 c -0.20483,-1.40051002 -1.20425,-2.30860002 -2.98938,-2.7162 -0.77407,-0.17674 -2.25138,-0.12232 -7.24454,0.2669 -3.4497,0.26890998 -6.48858,0.48930998 -6.75307,0.48977998 -0.43834,7.8e-4 -0.44506,0.0924 -0.0759,1.03569 1.33573,3.41296002 -0.66497,7.62383002 -4.69093,9.87300012 -1.72114,0.96155 -3.92586,1.75005 -5.5873,1.99827 -0.49562,0.074 -0.90114,0.20293 -0.90114,0.28642 0,0.29537 1.6047,1.76269 2.37739,2.17386 1.31335,0.69887 2.84424,0.96542 5.62866,0.98005 l 2.64509,0.0139 1.63039,-1.26318 z m -43.28781,-6.7691401 2.9e-4,-2.11896 -5.50617,0.0575 -5.50616,0.0575 v 2.06144 2.06143 h 5.50584 5.50585 l 2.9e-4,-2.11895 z m 67.22927,0 2.9e-4,-2.11896 -5.50617,0.0575 -5.50613,0.0575 v 2.06144 2.06143 h 5.50584 5.50585 l 2.9e-4,-2.11895 z m -35.82901,1.12682 c 4.02192,-1.02358 6.66421,-3.93246 6.14411,-6.76401 -0.68589,-3.73414 -5.73994,-6.29597 -11.09295,-5.62286 -3.19072,0.40121 -5.60361,1.67479 -6.99351,3.69132998 -1.1001,1.59609002 -1.09193,3.80787002 0.0198,5.35213002 2.20364,3.06106 7.3554,4.50575 11.92258,3.34341 z m -4.49263,-4.6288 c -0.997,-0.36842 -1.40719,-1.2136 -1.40719,-2.89943 v -1.36550002 l 0.72282,0.58431 c 0.45537,0.36812 1.12549,0.63515002 1.81113,0.72170002 1.33613,0.16866 2.01279,0.55998 2.25261,1.30271 0.25923,0.80283 -0.0615,1.3225 -1.02555,1.6616 -1.01959,0.35864 -1.37086,0.35784 -2.35382,-0.005 z"
         id="path388" />
      <path
         style="fill:#008000;stroke:#008000;stroke-width:2.60855;stroke-linejoin:round;paint-order:stroke fill markers;stroke-opacity:1"
         d="M 22.021487,82.393517 V 64.276294 H 41.519069 61.016651 V 82.393517 100.51074 H 41.519069 22.021487 Z"
         id="path390"
         transform="translate(166.37422,-31.799647)" />
      <path
         style="fill:#008000;stroke:#008000;stroke-width:2.60855;stroke-linejoin:round;paint-order:stroke fill markers;stroke-opacity:1"
         d="M 89.314027,82.393517 V 64.276294 h 19.497583 19.49758 V 82.393517 100.51074 H 108.81161 89.314027 Z"
         id="path392"
         transform="translate(166.37422,-31.799647)" />
      <path
         style="fill:#00ffff;stroke:#00255e;stroke-width:2.60855;stroke-linejoin:round;paint-order:stroke fill markers"
         d="m 22.021487,59.96267 v -0.862725 h 19.497582 19.497582 v 0.862725 0.862725 H 41.519069 22.021487 Z"
         id="path396"
         transform="translate(166.37422,-31.799647)" />
      <path
         style="fill:#00ffff;stroke:#00255e;stroke-width:2.60855;stroke-linejoin:round;paint-order:stroke fill markers"
         d="m 89.314027,59.96267 v -0.862725 h 19.497583 19.49758 v 0.862725 0.862725 H 108.81161 89.314027 Z"
         id="path398"
         transform="translate(166.37422,-31.799647)" />
      <path
         style="fill:#00ffff;stroke:#00255e;stroke-width:2.60855;stroke-linejoin:round;paint-order:stroke fill markers"
         d="m 89.314027,105.16945 v -0.86272 h 19.497583 19.49758 v 0.86272 0.86273 H 108.81161 89.314027 Z"
         id="path400"
         transform="translate(166.37422,-31.799647)" />
      <path
         style="fill:#00ffff;stroke:#00255e;stroke-width:2.60855;stroke-linejoin:round;paint-order:stroke fill markers"
         d="m 36.428992,106.11855 -14.407505,-0.0939 v -0.85894 -0.85894 h 19.497582 19.497582 v 1.03527 1.03527 l -5.090077,-0.0824 c -2.799542,-0.0453 -11.573454,-0.12466 -19.497582,-0.17634 z"
         id="path404"
         transform="translate(166.37422,-31.799647)" />
      <path
         style="fill:#008000;stroke:#008000;stroke-width:2.60855;stroke-linejoin:round;paint-order:stroke fill markers;stroke-opacity:1"
         d="m 35.99763,121.41834 c -6.538103,-1.51585 -11.269988,-4.79554 -13.265509,-9.19437 -0.382512,-0.84319 -0.698887,-1.72719 -0.703055,-1.96444 -0.006,-0.34009 4.11927,-0.43136 19.496578,-0.43136 h 19.504155 l -0.226855,0.949 c -0.95015,3.97471 -5.69257,8.15784 -11.272782,9.94336 -3.52312,1.12729 -10.195982,1.47139 -13.532532,0.69781 z"
         id="path406"
         transform="translate(166.37422,-31.799647)" />
      <path
         style="fill:#008000;stroke:#008000;stroke-width:2.60855;stroke-linejoin:round;paint-order:stroke fill markers;stroke-opacity:1"
         d="m 103.46272,121.40909 c -6.596333,-1.38927 -11.465017,-4.75084 -13.48075,-9.30773 -0.399087,-0.90221 -0.658104,-1.70788 -0.575593,-1.79039 0.335133,-0.33513 20.384793,-0.50043 29.347213,-0.24195 l 9.5969,0.27678 -1.24669,2.49061 c -1.8708,3.73748 -5.42966,6.4008 -10.64447,7.96593 -3.48526,1.04604 -9.56352,1.32981 -12.99661,0.60675 z"
         id="path408"
         transform="translate(166.37422,-31.799647)" />
      <path
         style="fill:#008000;stroke:#008000;stroke-width:2.60855;stroke-linejoin:round;paint-order:stroke fill markers;stroke-opacity:1"
         d="m 91.643384,55.048938 c -1.091347,-0.06848 -1.984267,-0.24798 -1.984267,-0.398882 0,-0.150902 0.594536,-1.191363 1.321191,-2.312136 1.518358,-2.341875 3.739421,-4.185598 6.94425,-5.76448 l 2.242022,-1.104548 8.3294,-0.103115 c 8.28159,-0.102522 8.34081,-0.09807 10.31697,0.775882 2.57945,1.140759 6.01859,3.605838 7.21013,5.168024 0.82163,1.077209 1.94102,3.274822 1.94102,3.810644 0,0.19864 -33.052837,0.133674 -36.320716,-0.07139 z"
         id="path410"
         transform="translate(166.37422,-31.799647)" />
      <path
         style="fill:#008000;stroke:#008000;stroke-width:2.60855;stroke-linejoin:round;paint-order:stroke fill markers;stroke-opacity:1"
         d="m 24.178299,55.051113 c -0.996447,-0.07057 -1.810265,-0.236668 -1.808484,-0.369099 0.0018,-0.132431 0.460307,-1.037697 1.018947,-2.011704 1.345489,-2.3459 3.709038,-4.342938 7.112632,-6.009688 l 2.785922,-1.364275 8.256956,0.0011 8.256956,0.0011 2.343491,1.180411 c 1.288919,0.649226 3.125266,1.774603 4.080769,2.500839 1.756032,1.334681 4.572694,5.081518 4.341532,5.77528 -0.08819,0.264682 -5.238345,0.383533 -17.351209,0.400416 -9.474184,0.0132 -18.041065,-0.03373 -19.037512,-0.104307 z"
         id="path412"
         transform="translate(166.37422,-31.799647)" />
      <path
         style="fill:#808080;stroke:#00255e;stroke-width:2.60855;stroke-linejoin:round;paint-order:stroke fill markers"
         d="m 36.170175,39.602363 v -1.897995 h 5.348894 5.348894 v 1.897995 1.897995 h -5.348894 -5.348894 z"
         id="path416"
         transform="translate(166.37422,-31.799647)" />
      <path
         style="fill:#808080;stroke:#00255e;stroke-width:2.60855;stroke-linejoin:round;paint-order:stroke fill markers"
         d="m 36.170175,39.602363 v -1.897995 h 5.348894 5.348894 v 1.897995 1.897995 h -5.348894 -5.348894 z"
         id="path418"
         transform="translate(166.37422,-31.799647)" />
      <path
         style="fill:#ff0000;stroke:#00255e;stroke-width:2.60855;stroke-linejoin:round;paint-order:stroke fill markers;fill-opacity:1"
         d="m 103.46272,39.602363 v -1.897995 h 5.34889 5.34889 v 1.897995 1.897995 h -5.34889 -5.34889 z"
         id="path420"
         transform="translate(166.37422,-31.799647)" />
      <path
         style="fill:#ff0000;stroke:none;stroke-width:2.60855;stroke-linejoin:round;paint-order:stroke fill markers"
         d="m 36.170175,39.602363 v -1.897995 h 5.348894 5.348894 v 1.897995 1.897995 h -5.348894 -5.348894 z"
         id="path422"
         transform="translate(166.37422,-31.799647)" />
      <path
         style="fill:#ff0000;stroke:none;stroke-width:2.60855;stroke-linejoin:round;paint-order:stroke fill markers;fill-opacity:1"
         d="m 103.46272,39.602363 v -1.897995 h 5.34889 5.34889 v 1.897995 1.897995 h -5.34889 -5.34889 z"
         id="path424"
         transform="translate(166.37422,-31.799647)" />
      <path
         style="fill:#ff0000;stroke:none;stroke-width:2.60855;stroke-linejoin:round;paint-order:stroke fill markers"
         d="m 73.439889,35.288738 c -0.423713,-0.423713 -0.690179,-1.150299 -0.690179,-1.881944 0,-1.183688 0.0064,-1.188588 0.948997,-0.722997 0.521948,0.257822 1.398783,0.600003 1.948521,0.760402 1.432831,0.418062 1.956193,1.395073 1.091331,2.037296 -0.950554,0.705856 -2.490015,0.615898 -3.29867,-0.192757 z"
         id="path426"
         transform="translate(166.37422,-31.799647)" />
      <path
         style="fill:#008000;stroke:none;stroke-width:0.326069;stroke-linejoin:round;paint-order:stroke fill markers"
         d=""
         id="path1251"
         transform="translate(166.37422,-31.799647)" />
    </g>
    <path
       style="fill:#000000"
       id="path294"
       d="" />
    <path
       style="fill:#000000"
       id="path292"
       d="" />
    <path
       style="fill:#000000"
       id="path290"
       d="" />
  </g>
</svg>
